<?xml version="1.0" encoding="UTF-8" standalone="no"?>
<!-- Created with Inkscape (http://www.inkscape.org/) -->

<svg
   xmlns:dc="http://purl.org/dc/elements/1.1/"
   xmlns:cc="http://creativecommons.org/ns#"
   xmlns:rdf="http://www.w3.org/1999/02/22-rdf-syntax-ns#"
   xmlns:svg="http://www.w3.org/2000/svg"
   xmlns="http://www.w3.org/2000/svg"
   xmlns:sodipodi="http://sodipodi.sourceforge.net/DTD/sodipodi-0.dtd"
   xmlns:inkscape="http://www.inkscape.org/namespaces/inkscape"
   width="210mm"
   height="297mm"
   viewBox="0 0 744.09448819 1052.3622047"
   id="svg2"
   version="1.1"
   inkscape:version="0.91 r13725"
   sodipodi:docname="kasneb.svg">
  <defs
     id="defs4">
    <clipPath
       id="clipPath4166"
       clipPathUnits="userSpaceOnUse">
      <path
         inkscape:connector-curvature="0"
         id="path4168"
         d="m 0,595.276 595.28,0 L 595.28,0 0,0 0,595.276 Z" />
    </clipPath>
  </defs>
  <sodipodi:namedview
     id="base"
     pagecolor="#ffffff"
     bordercolor="#666666"
     borderopacity="1.0"
     inkscape:pageopacity="0.0"
     inkscape:pageshadow="2"
     inkscape:zoom="0.35"
     inkscape:cx="-59.19068"
     inkscape:cy="-37.897124"
     inkscape:document-units="px"
     inkscape:current-layer="layer1"
     showgrid="false"
     inkscape:window-width="1920"
     inkscape:window-height="1023"
     inkscape:window-x="0"
     inkscape:window-y="27"
     inkscape:window-maximized="1" />
  <metadata
     id="metadata7">
    <rdf:RDF>
      <cc:Work
         rdf:about="">
        <dc:format>image/svg+xml</dc:format>
        <dc:type
           rdf:resource="http://purl.org/dc/dcmitype/StillImage" />
        <dc:title></dc:title>
      </cc:Work>
    </rdf:RDF>
  </metadata>
  <g
     inkscape:label="Layer 1"
     inkscape:groupmode="layer"
     id="layer1">
    <g
       transform="matrix(1.9639661,0,0,-1.9639661,-212.49742,1112.0045)"
       inkscape:label="Kasneb Logo (1)"
       id="g4144">
      <g
         transform="translate(108.0281,225.383)"
         id="g4146">
        <path
           inkscape:connector-curvature="0"
           id="path4148"
           style="fill:#0071ae;fill-opacity:1;fill-rule:nonzero;stroke:none"
           d="m 0,0 139.798,-85.981 0,252.007 0,23.496 0,39.685 L 0,313.793 0,0 Z" />
      </g>
      <g
         transform="translate(277.6063,266.7007)"
         id="g4150">
        <path
           inkscape:connector-curvature="0"
           id="path4152"
           style="fill:#ef4148;fill-opacity:1;fill-rule:nonzero;stroke:none"
           d="m 0,0 209.642,-127.267 0,167.652 -70.588,43.91 L 0,0 Z" />
      </g>
      <g
         transform="translate(277.5873,436.3328)"
         id="g4154">
        <path
           inkscape:connector-curvature="0"
           id="path4156"
           style="fill:#04679a;fill-opacity:1;fill-rule:nonzero;stroke:none"
           d="M 0,0 0.019,-169.633 139.073,-85.341 0,0 Z" />
      </g>
      <g
         transform="translate(277.5862,436.3324)"
         id="g4158">
        <path
           inkscape:connector-curvature="0"
           id="path4160"
           style="fill:#47c8f5;fill-opacity:1;fill-rule:nonzero;stroke:none"
           d="m 0,0 139.073,-85.337 70.591,42.711 0,169.458 L 0,0 Z" />
      </g>
      <g
         id="g4162">
        <g
           clip-path="url(#clipPath4166)"
           id="g4164">
          <g
             transform="translate(178.8946,333.369)"
             id="g4170">
            <path
               inkscape:connector-curvature="0"
               id="path4172"
               style="fill:#ffffff;fill-opacity:1;fill-rule:nonzero;stroke:none"
               d="m 0,0 c -7.295,0 -13.644,-3 -13.644,-9.275 0,-3.32 2.151,-6.197 5.65,-7.358 l 0,-0.078 -4.898,0 0,-2.319 35.331,0 0,2.52 -14.445,0 0,0.078 c 3.7,1.08 5.65,4.079 5.65,7.157 C 13.644,-3 7.295,0 0,0 m 10.994,-9.275 c 0,-5.355 -5.646,-7.235 -10.994,-7.235 -5.847,0 -10.994,1.679 -10.994,7.235 0,4.798 5.646,6.755 10.994,6.755 5.348,0 10.994,-1.957 10.994,-6.755" />
          </g>
          <g
             transform="translate(178.895,355.7568)"
             id="g4174">
            <path
               inkscape:connector-curvature="0"
               id="path4176"
               style="fill:#ffffff;fill-opacity:1;fill-rule:nonzero;stroke:none"
               d="m 0,0 c -7.395,0 -13.644,-3.439 -13.644,-9.755 0,-6.316 6.249,-9.755 13.644,-9.755 7.395,0 13.644,3.439 13.644,9.755 C 13.644,-3.439 7.395,0 0,0 m 10.994,-9.755 c 0,-4.838 -5.497,-7.235 -10.994,-7.235 -5.497,0 -10.994,2.397 -10.994,7.235 0,4.838 5.497,7.235 10.994,7.235 5.497,0 10.994,-2.397 10.994,-7.235" />
          </g>
          <g
             transform="translate(183.2923,403.8913)"
             id="g4178">
            <path
               inkscape:connector-curvature="0"
               id="path4180"
               style="fill:#ffffff;fill-opacity:1;fill-rule:nonzero;stroke:none"
               d="m 0,0 c 3.897,-0.8 6.595,-2.799 6.595,-6.476 0,-4.838 -5.545,-6.759 -10.142,-6.796 l 0,15.87 C -10.793,2.799 -18.04,0.16 -18.04,-6.476 c 0,-6.558 6.845,-9.316 13.641,-9.316 7.347,0 13.644,2.758 13.644,9.316 C 9.245,-1.28 5.847,1.44 0,2.52 L 0,0 Z m -6.197,-13.272 c -4.697,0.398 -9.196,2.676 -9.196,6.796 0,4.075 4.447,6.435 9.196,6.554 l 0,-13.35 z" />
          </g>
          <g
             transform="translate(183.2927,436.514)"
             id="g4182">
            <path
               inkscape:connector-curvature="0"
               id="path4184"
               style="fill:#ffffff;fill-opacity:1;fill-rule:nonzero;stroke:none"
               d="m 0,0 c 3.897,-0.8 6.595,-2.799 6.595,-6.476 0,-4.838 -5.545,-6.759 -10.142,-6.796 l 0,15.87 C -10.793,2.799 -18.04,0.16 -18.04,-6.476 c 0,-6.558 6.845,-9.316 13.641,-9.316 7.347,0 13.644,2.758 13.644,9.316 C 9.245,-1.28 5.847,1.44 0,2.52 L 0,0 Z m -6.197,-13.272 c -4.697,0.398 -9.196,2.676 -9.196,6.796 0,4.075 4.447,6.435 9.196,6.554 l 0,-13.35 z" />
          </g>
          <g
             transform="translate(191.7881,460.6608)"
             id="g4186">
            <path
               inkscape:connector-curvature="0"
               id="path4188"
               style="fill:#ffffff;fill-opacity:1;fill-rule:nonzero;stroke:none"
               d="m 0,0 -35.681,0 0,-2.52 14.79,0 0,-0.078 c -3.695,-1.079 -5.645,-4.079 -5.645,-7.157 0,-6.275 6.345,-9.275 13.644,-9.275 7.294,0 13.64,3 13.64,9.275 0,3 -2.296,6.275 -5.646,7.358 l 0,0.078 4.898,0 L 0,0 Z m -1.898,-9.755 c 0,-4.797 -5.65,-6.755 -10.994,-6.755 -5.349,0 -10.995,1.958 -10.995,6.755 0,5.356 5.646,7.235 10.995,7.235 5.348,0 10.994,-1.879 10.994,-7.235" />
          </g>
          <g
             transform="translate(191.7881,281.0371)"
             id="g4190">
            <path
               inkscape:connector-curvature="0"
               id="path4192"
               style="fill:#ffffff;fill-opacity:1;fill-rule:nonzero;stroke:none"
               d="m 0,0 0,2.52 -14.392,0 c -5.397,0.037 -9.495,1.797 -9.495,6.156 0,3.197 2.9,4.358 6.395,4.317 l 17.492,0 0,2.519 -14.593,0 c -4.798,0 -9.294,1.24 -9.294,5.598 0,3.595 2.297,4.876 6.547,4.876 l 17.34,0 0,2.519 -17.492,0 c -6.097,0 -9.044,-2.318 -9.044,-6.837 0,-2.717 1.648,-5.318 5.046,-6.557 -3.398,-0.76 -5.046,-3.198 -5.046,-5.914 0,-3.279 1.998,-5.438 5.098,-6.759 l 0,-0.119 -4.347,0 0,-2.319 L 0,0 Z" />
          </g>
          <g
             transform="translate(191.7881,364.0724)"
             id="g4194">
            <path
               inkscape:connector-curvature="0"
               id="path4196"
               style="fill:#ffffff;fill-opacity:1;fill-rule:nonzero;stroke:none"
               d="m 0,0 0,2.758 -21.687,5.039 0,0.078 21.687,5.077 0,2.761 -25.785,6.636 0,-2.679 22.086,-5.278 0,-0.078 -22.086,-5.039 0,-2.84 22.086,-5.036 0,-0.081 -22.086,-5.274 0,-2.68 L 0,0 Z" />
          </g>
          <g
             transform="translate(191.7881,409.8879)"
             id="g4198">
            <path
               inkscape:connector-curvature="0"
               id="path4200"
               style="fill:#ffffff;fill-opacity:1;fill-rule:nonzero;stroke:none"
               d="m 0,0 0,2.52 -13.741,0 c -5.348,0 -9.546,3.119 -9.249,7.674 l -3.145,0 c -0.201,-3.718 2.248,-6.517 6.395,-7.793 l 0,-0.082 -6.045,0 0,-2.319 L 0,0 Z" />
          </g>
          <path
             inkscape:connector-curvature="0"
             id="path4202"
             style="fill:#5bcbf5;fill-opacity:1;fill-rule:nonzero;stroke:none"
             d="m 177.551,261.775 2.691,0 0,13.339 -2.691,0 0,-13.339 z" />
          <g
             transform="translate(178.8946,254.3201)"
             id="g4204">
            <path
               inkscape:connector-curvature="0"
               id="path4206"
               style="fill:#5bcbf5;fill-opacity:1;fill-rule:nonzero;stroke:none"
               d="m 0,0 c 5.348,0 10.994,-1.958 10.994,-6.748 0,-5.352 -5.646,-7.227 -10.994,-7.227 -5.348,0 -10.994,1.875 -10.994,7.227 C -10.994,-1.958 -5.348,0 0,0 m 12.892,-16.491 0,2.315 -4.898,0 0,0.082 c 3.499,1.157 5.65,4.03 5.65,7.346 0,6.268 -6.349,9.264 -13.644,9.264 -7.295,0 -13.644,-2.996 -13.644,-9.264 0,-3.074 1.95,-6.07 5.65,-7.149 l 0,-0.078 -14.795,0 0,-2.516 35.681,0 z" />
          </g>
          <path
             inkscape:connector-curvature="0"
             id="path4208"
             style="fill:#5bcbf5;fill-opacity:1;fill-rule:nonzero;stroke:none"
             d="m 165.951,261.775 2.691,0 0,13.339 -2.691,0 0,-13.339 z" />
          <path
             inkscape:connector-curvature="0"
             id="path4210"
             style="fill:#5bcbf5;fill-opacity:1;fill-rule:nonzero;stroke:none"
             d="m 189.167,261.775 2.702,0 0,13.339 -2.702,0 0,-13.339 z" />
          <g
             transform="translate(115.9161,33.5593)"
             id="g4212">
            <path
               inkscape:connector-curvature="0"
               id="path4214"
               style="fill:#58595b;fill-opacity:1;fill-rule:nonzero;stroke:none"
               d="m 0,0 8.214,0 0,30.441 5.557,0 c 2.173,0 5.073,-0.242 6.401,-2.658 L 32.253,6.04 C 35.033,0.968 36.723,0 42.764,0 l 5.675,0 0,7.127 -3.26,0 c -3.26,0 -4.47,0.603 -5.557,2.658 L 28.628,29.477 c -1.931,3.621 -3.744,4.47 -3.744,4.47 l 0,0.238 c 0,0 1.571,0.606 4.593,4.351 l 17.515,22.226 -10.027,0 -15.583,-20.295 c -1.69,-2.173 -4.589,-2.899 -6.886,-2.899 l -6.282,0 0,40.348 c 0,5.196 -2.174,7.008 -7.369,7.008 l -8.575,0 0,-7.127 5.073,0 C -0.968,77.797 0,76.829 0,75.14 L 0,0 Z m 53.996,16.551 c 0,-12.081 10.51,-17.999 20.66,-17.999 15.218,0 20.291,13.164 20.172,13.164 l 0.242,0 c 0,0 -0.123,-1.809 -0.123,-4.47 0,-4.95 2.054,-7.246 7.25,-7.246 l 8.333,0 0,7.127 -5.073,0 c -1.689,0 -2.657,0.845 -2.657,2.658 l 0,29.112 c 0,13.048 -4.589,23.317 -23.797,23.317 -5.315,0 -19.811,-1.813 -19.811,-10.269 l 0,-5.798 7.853,0 0,3.863 c 0,4.47 8.817,5.318 11.839,5.318 11.113,0 15.702,-4.47 15.702,-17.153 l 0,-0.726 -3.383,0 c -10.511,0 -37.207,-0.726 -37.207,-20.898 m 8.456,0.48 c 0,13.652 19.089,13.893 28.632,13.893 l 3.502,0 0,-2.776 c 0,-10.51 -7.004,-22.591 -18.602,-22.591 -9.062,0 -13.532,5.798 -13.532,11.474 m 54.119,-7.849 c 0,0 7.488,-10.63 23.313,-10.63 12.081,0 21.263,6.886 21.263,17.031 0,20.172 -34.066,17.035 -34.066,30.683 0,5.921 5.073,8.82 13.529,8.82 3.986,0 10.51,-1.693 10.51,-6.163 l 0,-2.899 7.73,0 0,5.195 c 0,8.576 -12.319,10.995 -18.482,10.995 -12.2,0 -21.624,-5.438 -21.624,-16.432 0,-19.569 34.066,-17.154 34.066,-30.441 0,-6.401 -6.041,-9.665 -12.803,-9.665 -11.958,0 -18.724,9.181 -18.724,9.181 L 116.571,9.182 Z M 176.726,0 l 8.218,0 0,29.112 c 0,2.899 0.238,5.679 0.964,8.214 2.78,10.027 11.72,17.154 22.107,17.154 11.717,0 13.168,-8.456 13.168,-17.999 l 0,-29.112 C 221.183,2.174 223.357,0 228.552,0 l 8.575,0 0,7.127 -5.072,0 c -1.69,0 -2.658,0.845 -2.658,2.658 l 0,28.87 c 0,14.98 -5.314,23.559 -20.414,23.559 -14.254,0 -21.988,-9.785 -24.162,-15.345 l -0.242,0 c 0,0 0.242,1.935 0.242,4.35 l 0,2.777 c 0,4.593 -2.296,6.766 -7.369,6.766 l -8.456,0 0,-7.127 5.073,0 c 1.693,0 2.657,-0.968 2.657,-2.657 l 0,-50.978 z m 67.771,30.322 c 0,-18.725 13.77,-31.77 31.769,-31.77 13.771,0 22.588,8.694 22.588,8.694 l -3.986,6.164 c 0,0 -7.128,-7.492 -18.241,-7.492 -12.561,0 -23.313,8.82 -23.555,24.162 l 46.63,0 c 0,0 0.242,2.657 0.242,4.105 0,15.103 -8.698,28.029 -25.491,28.029 -16.309,0 -29.956,-11.962 -29.956,-31.892 m 8.936,6.282 c 2.054,12.2 10.875,18.724 20.901,18.724 8.936,0 16.67,-6.163 17.154,-18.724 l -38.055,0 z M 316.007,0 l 7.973,0 0,5.315 c 0,2.899 -0.242,4.953 -0.242,4.953 l 0.242,0 c 0,0 5.437,-11.716 19.934,-11.716 15.944,0 27.422,12.561 27.422,31.77 0,18.843 -10.15,31.892 -26.459,31.892 -15.583,0 -20.656,-11.597 -20.656,-11.597 l -0.241,0 c 0,0 0.241,2.173 0.241,4.95 l 0,21.988 c 0,5.192 -2.173,7.369 -7.369,7.369 l -8.575,0 0,-7.127 5.073,0 c 1.69,0 2.657,-0.968 2.657,-2.657 l 0,-75.14 z m 7.973,30.199 c 0,17.276 9.542,24.523 19.692,24.523 11.232,0 19.208,-9.543 19.208,-24.4 0,-15.465 -8.821,-24.523 -19.573,-24.523 -13.045,0 -19.327,12.2 -19.327,24.4" />
          </g>
        </g>
      </g>
    </g>
  </g>
</svg>
